<svg xmlns="http://www.w3.org/2000/svg" width="64" height="64" viewBox="0 0 64 64" fill="none">
  <rect width="64" height="64" rx="12" fill="url(#paint0_linear)"/>
  <path d="M32 18C25.373 18 20 23.373 20 30V38C20 38.5523 20.4477 39 21 39H27C27.5523 39 28 38.5523 28 38V30C28 27.7909 29.7909 26 32 26C34.2091 26 36 27.7909 36 30V38C36 38.5523 36.4477 39 37 39H43C43.5523 39 44 38.5523 44 38V30C44 23.373 38.627 18 32 18Z" fill="white"/>
  <path d="M21 41C20.4477 41 20 41.4477 20 42V46C20 46.5523 20.4477 47 21 47H43C43.5523 47 44 46.5523 44 46V42C44 41.4477 43.5523 41 43 41H37C36.4477 41 36 41.4477 36 42V42.5C36 43.3284 35.3284 44 34.5 44H29.5C28.6716 44 28 43.3284 28 42.5V42C28 41.4477 27.5523 41 27 41H21Z" fill="white"/>
  <defs>
    <linearGradient id="paint0_linear" x1="0" y1="0" x2="64" y2="64" gradientUnits="userSpaceOnUse">
      <stop stop-color="#2563EB"/>
      <stop offset="1" stop-color="#9333EA"/>
    </linearGradient>
  </defs>
</svg>
